<svg width="481" height="200" viewBox="0 0 481 200" fill="none" xmlns="http://www.w3.org/2000/svg">
<rect width="200" height="200" rx="40" fill="#60BF9C"/>
<rect width="200" height="200" rx="40" fill="black" fill-opacity="0.1"/>
<rect x="140.485" y="177.828" width="72.1337" height="20" rx="10" transform="rotate(-115 140.485 177.828)" fill="#3E3940"/>
<rect x="41" y="169.375" width="72.1337" height="20" rx="10" transform="rotate(-65 41 169.375)" fill="#3E3940"/>
<rect x="90" y="178" width="61" height="20" rx="10" transform="rotate(-90 90 178)" fill="#3E3940"/>
<circle cx="100.5" cy="81.5" r="52.5" fill="#3E3940"/>
<circle cx="100" cy="82" r="35" fill="white"/>
<circle cx="82.5" cy="82.5" r="7.5" transform="rotate(-180 82.5 82.5)" fill="#3E3940"/>
<circle cx="117.5" cy="82.5" r="7.5" transform="rotate(-180 117.5 82.5)" fill="#3E3940"/>
<path d="M234.976 54.288C237.664 54.288 239.712 53.776 241.12 52.752C242.528 51.728 243.232 50.192 243.232 48.144C243.232 46.9067 242.976 45.8613 242.464 45.008C241.952 44.112 241.269 43.344 240.416 42.704C239.563 42.0213 238.603 41.4453 237.536 40.976C236.469 40.464 235.381 39.9947 234.272 39.568C232.992 39.056 231.755 38.48 230.56 37.84C229.408 37.2 228.363 36.4533 227.424 35.6C226.528 34.7467 225.803 33.744 225.248 32.592C224.736 31.44 224.48 30.0747 224.48 28.496C224.48 25.04 225.568 22.352 227.744 20.432C229.92 18.4693 232.949 17.488 236.832 17.488C237.899 17.488 238.944 17.5733 239.968 17.744C241.035 17.872 242.016 18.0427 242.912 18.256C243.808 18.4693 244.597 18.7253 245.28 19.024C246.005 19.3227 246.581 19.6213 247.008 19.92L245.344 24.336C244.491 23.824 243.317 23.312 241.824 22.8C240.331 22.288 238.667 22.032 236.832 22.032C234.912 22.032 233.248 22.5227 231.84 23.504C230.432 24.4427 229.728 25.872 229.728 27.792C229.728 28.9013 229.92 29.84 230.304 30.608C230.731 31.376 231.285 32.0587 231.968 32.656C232.693 33.2107 233.525 33.7227 234.464 34.192C235.403 34.6613 236.427 35.1307 237.536 35.6C239.157 36.2827 240.629 36.9653 241.952 37.648C243.317 38.3307 244.469 39.1413 245.408 40.08C246.389 41.0187 247.136 42.128 247.648 43.408C248.203 44.688 248.48 46.2453 248.48 48.08C248.48 51.536 247.307 54.2027 244.96 56.08C242.656 57.9147 239.328 58.832 234.976 58.832C233.568 58.832 232.245 58.7253 231.008 58.512C229.771 58.3413 228.661 58.1067 227.68 57.808C226.741 57.5093 225.909 57.2107 225.184 56.912C224.459 56.6133 223.904 56.336 223.52 56.08L225.12 51.728C225.973 52.1973 227.232 52.752 228.896 53.392C230.56 53.9893 232.587 54.288 234.976 54.288ZM277.856 58L275.488 47.632H260.256L257.952 58H252.576C253.301 55.184 254.112 52.1333 255.008 48.848C255.904 45.5627 256.864 42.192 257.888 38.736C258.955 35.28 260.064 31.824 261.216 28.368C262.368 24.8693 263.584 21.5413 264.864 18.384H271.392C272.629 21.5413 273.803 24.8693 274.912 28.368C276.064 31.824 277.131 35.28 278.112 38.736C279.136 42.192 280.096 45.5627 280.992 48.848C281.888 52.1333 282.699 55.184 283.424 58H277.856ZM267.936 22.992C266.955 25.68 265.888 28.7947 264.736 32.336C263.584 35.8773 262.496 39.5253 261.472 43.28H274.272C273.291 39.44 272.224 35.7493 271.072 32.208C269.963 28.624 268.917 25.552 267.936 22.992ZM307.104 58C305.653 54.4587 304.288 51.2587 303.008 48.4C301.728 45.4987 300.491 42.7893 299.296 40.272C298.144 37.7547 296.992 35.3867 295.84 33.168C294.688 30.9067 293.515 28.6453 292.32 26.384V58H287.52V18.384H292.896C294.645 21.584 296.16 24.3787 297.44 26.768C298.763 29.1573 299.957 31.4827 301.024 33.744C302.133 35.9627 303.2 38.2667 304.224 40.656C305.248 43.0027 306.4 45.7333 307.68 48.848V18.384H312.48V58H307.104ZM345.504 18.384V22.864H334.624V58H329.376V22.864H318.496V18.384H345.504ZM366.624 22.864V53.52H374.304V58H353.696V53.52H361.376V22.864H353.696V18.384H374.304V22.864H366.624ZM405.856 58L403.488 47.632H388.256L385.952 58H380.576C381.301 55.184 382.112 52.1333 383.008 48.848C383.904 45.5627 384.864 42.192 385.888 38.736C386.955 35.28 388.064 31.824 389.216 28.368C390.368 24.8693 391.584 21.5413 392.864 18.384H399.392C400.629 21.5413 401.803 24.8693 402.912 28.368C404.064 31.824 405.131 35.28 406.112 38.736C407.136 42.192 408.096 45.5627 408.992 48.848C409.888 52.1333 410.699 55.184 411.424 58H405.856ZM395.936 22.992C394.955 25.68 393.888 28.7947 392.736 32.336C391.584 35.8773 390.496 39.5253 389.472 43.28H402.272C401.291 39.44 400.224 35.7493 399.072 32.208C397.963 28.624 396.917 25.552 395.936 22.992ZM435.872 38.48H441.12V57.04C440.309 57.3387 439.008 57.7013 437.216 58.128C435.424 58.5973 433.312 58.832 430.88 58.832C428.491 58.832 426.315 58.384 424.352 57.488C422.389 56.5493 420.704 55.2053 419.296 53.456C417.931 51.7067 416.864 49.552 416.096 46.992C415.328 44.3893 414.944 41.4453 414.944 38.16C414.944 34.832 415.371 31.888 416.224 29.328C417.077 26.768 418.229 24.6133 419.68 22.864C421.173 21.1147 422.901 19.792 424.864 18.896C426.827 17.9573 428.939 17.488 431.2 17.488C432.651 17.488 433.931 17.5947 435.04 17.808C436.149 18.0213 437.088 18.2773 437.856 18.576C438.667 18.8747 439.328 19.1947 439.84 19.536C440.352 19.8347 440.736 20.0693 440.992 20.24L439.264 24.656C438.283 23.888 437.109 23.2693 435.744 22.8C434.421 22.288 433.013 22.032 431.52 22.032C429.899 22.032 428.384 22.416 426.976 23.184C425.611 23.952 424.437 25.04 423.456 26.448C422.475 27.856 421.707 29.5627 421.152 31.568C420.597 33.5307 420.32 35.728 420.32 38.16C420.32 40.5493 420.555 42.7253 421.024 44.688C421.536 46.6507 422.261 48.336 423.2 49.744C424.139 51.152 425.291 52.2613 426.656 53.072C428.064 53.84 429.664 54.224 431.456 54.224C432.693 54.224 433.653 54.1387 434.336 53.968C435.019 53.7973 435.531 53.6267 435.872 53.456V38.48ZM445.856 38.16C445.856 34.6187 446.197 31.5467 446.88 28.944C447.563 26.3413 448.523 24.208 449.76 22.544C450.997 20.8373 452.469 19.5787 454.176 18.768C455.925 17.9147 457.867 17.488 460 17.488C462.091 17.488 464.011 17.9147 465.76 18.768C467.509 19.5787 469.003 20.8373 470.24 22.544C471.477 24.208 472.437 26.3413 473.12 28.944C473.845 31.5467 474.208 34.6187 474.208 38.16C474.208 41.7013 473.845 44.7733 473.12 47.376C472.437 49.9787 471.477 52.1333 470.24 53.84C469.003 55.5467 467.509 56.8053 465.76 57.616C464.011 58.4267 462.091 58.832 460 58.832C457.867 58.832 455.925 58.4267 454.176 57.616C452.469 56.8053 450.997 55.5467 449.76 53.84C448.523 52.1333 447.563 49.9787 446.88 47.376C446.197 44.7733 445.856 41.7013 445.856 38.16ZM451.232 38.16C451.232 43.3653 451.936 47.3547 453.344 50.128C454.752 52.9013 456.928 54.288 459.872 54.288C462.859 54.288 465.099 52.9013 466.592 50.128C468.085 47.3547 468.832 43.3653 468.832 38.16C468.832 32.9547 468.085 28.9653 466.592 26.192C465.099 23.4187 462.859 22.032 459.872 22.032C456.928 22.032 454.752 23.4187 453.344 26.192C451.936 28.9653 451.232 32.9547 451.232 38.16ZM245.856 122L243.488 111.632H228.256L225.952 122H220.576C221.301 119.184 222.112 116.133 223.008 112.848C223.904 109.563 224.864 106.192 225.888 102.736C226.955 99.28 228.064 95.824 229.216 92.368C230.368 88.8693 231.584 85.5413 232.864 82.384H239.392C240.629 85.5413 241.803 88.8693 242.912 92.368C244.064 95.824 245.131 99.28 246.112 102.736C247.136 106.192 248.096 109.563 248.992 112.848C249.888 116.133 250.699 119.184 251.424 122H245.856ZM235.936 86.992C234.955 89.68 233.888 92.7947 232.736 96.336C231.584 99.8773 230.496 103.525 229.472 107.28H242.272C241.291 103.44 240.224 99.7493 239.072 96.208C237.963 92.624 236.917 89.552 235.936 86.992ZM281.44 120.336C279.947 121.189 278.347 121.808 276.64 122.192C274.976 122.619 273.184 122.832 271.264 122.832C268.917 122.832 266.741 122.427 264.736 121.616C262.773 120.763 261.067 119.504 259.616 117.84C258.165 116.133 257.013 113.979 256.16 111.376C255.349 108.773 254.944 105.701 254.944 102.16C254.944 98.7893 255.371 95.824 256.224 93.264C257.12 90.704 258.315 88.5493 259.808 86.8C261.301 85.0507 263.051 83.728 265.056 82.832C267.061 81.936 269.195 81.488 271.456 81.488C273.035 81.488 274.635 81.7013 276.256 82.128C277.92 82.5547 279.541 83.2587 281.12 84.24L279.584 88.592C276.768 86.9707 274.123 86.16 271.648 86.16C269.899 86.16 268.32 86.544 266.912 87.312C265.547 88.0373 264.373 89.104 263.392 90.512C262.411 91.92 261.643 93.6053 261.088 95.568C260.576 97.5307 260.32 99.728 260.32 102.16C260.32 104.891 260.597 107.259 261.152 109.264C261.749 111.269 262.56 112.933 263.584 114.256C264.608 115.579 265.824 116.56 267.232 117.2C268.683 117.84 270.24 118.16 271.904 118.16C273.141 118.16 274.443 118.011 275.808 117.712C277.173 117.371 278.581 116.795 280.032 115.984L281.44 120.336ZM285.856 102.16C285.856 98.6187 286.197 95.5467 286.88 92.944C287.563 90.3413 288.523 88.208 289.76 86.544C290.997 84.8373 292.469 83.5787 294.176 82.768C295.925 81.9147 297.867 81.488 300 81.488C302.091 81.488 304.011 81.9147 305.76 82.768C307.509 83.5787 309.003 84.8373 310.24 86.544C311.477 88.208 312.437 90.3413 313.12 92.944C313.845 95.5467 314.208 98.6187 314.208 102.16C314.208 105.701 313.845 108.773 313.12 111.376C312.437 113.979 311.477 116.133 310.24 117.84C309.003 119.547 307.509 120.805 305.76 121.616C304.011 122.427 302.091 122.832 300 122.832C297.867 122.832 295.925 122.427 294.176 121.616C292.469 120.805 290.997 119.547 289.76 117.84C288.523 116.133 287.563 113.979 286.88 111.376C286.197 108.773 285.856 105.701 285.856 102.16ZM291.232 102.16C291.232 107.365 291.936 111.355 293.344 114.128C294.752 116.901 296.928 118.288 299.872 118.288C302.859 118.288 305.099 116.901 306.592 114.128C308.085 111.355 308.832 107.365 308.832 102.16C308.832 96.9547 308.085 92.9653 306.592 90.192C305.099 87.4187 302.859 86.032 299.872 86.032C296.928 86.032 294.752 87.4187 293.344 90.192C291.936 92.9653 291.232 96.9547 291.232 102.16ZM330.976 118.288C333.664 118.288 335.712 117.776 337.12 116.752C338.528 115.728 339.232 114.192 339.232 112.144C339.232 110.907 338.976 109.861 338.464 109.008C337.952 108.112 337.269 107.344 336.416 106.704C335.563 106.021 334.603 105.445 333.536 104.976C332.469 104.464 331.381 103.995 330.272 103.568C328.992 103.056 327.755 102.48 326.56 101.84C325.408 101.2 324.363 100.453 323.424 99.6C322.528 98.7467 321.803 97.744 321.248 96.592C320.736 95.44 320.48 94.0747 320.48 92.496C320.48 89.04 321.568 86.352 323.744 84.432C325.92 82.4693 328.949 81.488 332.832 81.488C333.899 81.488 334.944 81.5733 335.968 81.744C337.035 81.872 338.016 82.0427 338.912 82.256C339.808 82.4693 340.597 82.7253 341.28 83.024C342.005 83.3227 342.581 83.6213 343.008 83.92L341.344 88.336C340.491 87.824 339.317 87.312 337.824 86.8C336.331 86.288 334.667 86.032 332.832 86.032C330.912 86.032 329.248 86.5227 327.84 87.504C326.432 88.4427 325.728 89.872 325.728 91.792C325.728 92.9013 325.92 93.84 326.304 94.608C326.731 95.376 327.285 96.0587 327.968 96.656C328.693 97.2107 329.525 97.7227 330.464 98.192C331.403 98.6613 332.427 99.1307 333.536 99.6C335.157 100.283 336.629 100.965 337.952 101.648C339.317 102.331 340.469 103.141 341.408 104.08C342.389 105.019 343.136 106.128 343.648 107.408C344.203 108.688 344.48 110.245 344.48 112.08C344.48 115.536 343.307 118.203 340.96 120.08C338.656 121.915 335.328 122.832 330.976 122.832C329.568 122.832 328.245 122.725 327.008 122.512C325.771 122.341 324.661 122.107 323.68 121.808C322.741 121.509 321.909 121.211 321.184 120.912C320.459 120.613 319.904 120.336 319.52 120.08L321.12 115.728C321.973 116.197 323.232 116.752 324.896 117.392C326.56 117.989 328.587 118.288 330.976 118.288ZM377.504 82.384V86.864H366.624V122H361.376V86.864H350.496V82.384H377.504ZM405.856 122L403.488 111.632H388.256L385.952 122H380.576C381.301 119.184 382.112 116.133 383.008 112.848C383.904 109.563 384.864 106.192 385.888 102.736C386.955 99.28 388.064 95.824 389.216 92.368C390.368 88.8693 391.584 85.5413 392.864 82.384H399.392C400.629 85.5413 401.803 88.8693 402.912 92.368C404.064 95.824 405.131 99.28 406.112 102.736C407.136 106.192 408.096 109.563 408.992 112.848C409.888 116.133 410.699 119.184 411.424 122H405.856ZM395.936 86.992C394.955 89.68 393.888 92.7947 392.736 96.336C391.584 99.8773 390.496 103.525 389.472 107.28H402.272C401.291 103.44 400.224 99.7493 399.072 96.208C397.963 92.624 396.917 89.552 395.936 86.992ZM236.064 166.096L242.208 146.384H247.136C247.989 152.613 248.587 158.992 248.928 165.52C249.312 172.048 249.653 178.875 249.952 186H244.832C244.789 183.696 244.747 181.2 244.704 178.512C244.661 175.824 244.597 173.051 244.512 170.192C244.469 167.333 244.405 164.432 244.32 161.488C244.277 158.544 244.213 155.685 244.128 152.912L238.368 170.96H233.76L227.872 152.912C227.829 155.685 227.765 158.544 227.68 161.488C227.637 164.389 227.573 167.291 227.488 170.192C227.445 173.051 227.381 175.824 227.296 178.512C227.253 181.2 227.211 183.696 227.168 186H222.048C222.176 182.757 222.325 179.429 222.496 176.016C222.667 172.603 222.859 169.211 223.072 165.84C223.328 162.469 223.605 159.141 223.904 155.856C224.245 152.571 224.608 149.413 224.992 146.384H229.856L236.064 166.096ZM257.824 186V146.384H280.032V150.864H263.072V163.024H277.92V167.504H263.072V181.52H281.44V186H257.824ZM312.608 150.48C311.243 152.357 309.707 154.597 308 157.2C306.336 159.76 304.629 162.448 302.88 165.264C301.131 168.08 299.424 170.917 297.76 173.776C296.139 176.592 294.709 179.173 293.472 181.52H313.12V186H287.456V182.544C288.779 179.856 290.229 177.104 291.808 174.288C293.429 171.429 295.072 168.635 296.736 165.904C298.4 163.173 300.064 160.528 301.728 157.968C303.392 155.408 304.992 153.04 306.528 150.864H288.416V146.384H312.608V150.48ZM341.856 186L339.488 175.632H324.256L321.952 186H316.576C317.301 183.184 318.112 180.133 319.008 176.848C319.904 173.563 320.864 170.192 321.888 166.736C322.955 163.28 324.064 159.824 325.216 156.368C326.368 152.869 327.584 149.541 328.864 146.384H335.392C336.629 149.541 337.803 152.869 338.912 156.368C340.064 159.824 341.131 163.28 342.112 166.736C343.136 170.192 344.096 173.563 344.992 176.848C345.888 180.133 346.699 183.184 347.424 186H341.856ZM331.936 150.992C330.955 153.68 329.888 156.795 328.736 160.336C327.584 163.877 326.496 167.525 325.472 171.28H338.272C337.291 167.44 336.224 163.749 335.072 160.208C333.963 156.624 332.917 153.552 331.936 150.992ZM421.024 169.68L441.312 178.064L439.84 182.48L415.136 171.984V167.44L439.84 156.944L441.312 161.36L421.024 169.68ZM447.136 161.36L448.608 156.944L473.312 167.44V171.984L448.608 182.48L447.136 178.064L467.424 169.68L447.136 161.36Z" fill="white"/>
</svg>
