<?xml version="1.0" standalone="no"?>
<svg xmlns:xlink="http://www.w3.org/1999/xlink" id="wave" style="transform:rotate(0deg); transition: 0.3s" viewBox="0 0 1440 100" version="1.1" xmlns="http://www.w3.org/2000/svg"><defs><linearGradient id="sw-gradient-0" x1="0" x2="0" y1="1" y2="0"><stop stop-color="rgba(189.258, 189.258, 189.258, 1)" offset="0%"/><stop stop-color="rgba(255, 255, 255, 1)" offset="100%"/></linearGradient></defs><path style="transform:translate(0, 0px); opacity:1" fill="url(#sw-gradient-0)" d="M0,90L10,90C20,90,40,90,60,86.7C80,83,100,77,120,75C140,73,160,77,180,65C200,53,220,27,240,26.7C260,27,280,53,300,65C320,77,340,73,360,65C380,57,400,43,420,38.3C440,33,460,37,480,35C500,33,520,27,540,21.7C560,17,580,13,600,20C620,27,640,43,660,50C680,57,700,53,720,48.3C740,43,760,37,780,30C800,23,820,17,840,15C860,13,880,17,900,26.7C920,37,940,53,960,63.3C980,73,1000,77,1020,80C1040,83,1060,87,1080,75C1100,63,1120,37,1140,26.7C1160,17,1180,23,1200,25C1220,27,1240,23,1260,23.3C1280,23,1300,27,1320,36.7C1340,47,1360,63,1380,66.7C1400,70,1420,60,1430,55L1440,50L1440,100L1430,100C1420,100,1400,100,1380,100C1360,100,1340,100,1320,100C1300,100,1280,100,1260,100C1240,100,1220,100,1200,100C1180,100,1160,100,1140,100C1120,100,1100,100,1080,100C1060,100,1040,100,1020,100C1000,100,980,100,960,100C940,100,920,100,900,100C880,100,860,100,840,100C820,100,800,100,780,100C760,100,740,100,720,100C700,100,680,100,660,100C640,100,620,100,600,100C580,100,560,100,540,100C520,100,500,100,480,100C460,100,440,100,420,100C400,100,380,100,360,100C340,100,320,100,300,100C280,100,260,100,240,100C220,100,200,100,180,100C160,100,140,100,120,100C100,100,80,100,60,100C40,100,20,100,10,100L0,100Z"/></svg>